<svg width="2082" height="315" viewBox="0 0 2082 315" fill="none" xmlns="http://www.w3.org/2000/svg">
<g clip-path="url(#clip0_532_1998)">
<path d="M105.767 174.818C105.767 150.404 90.2925 130.53 70.9942 130.53C51.6959 130.53 36.0401 150.393 36.0401 174.818V278.66L0 314.24V174.818V0.700073L36.0401 38.7715V104.847C46.2322 98.2906 58.2455 94.4631 70.9942 94.4631C110.134 94.4631 141.807 130.542 141.807 174.83V255.378H105.767V244.812V174.818Z" fill="#1C1C1C"/>
<path d="M310.741 255.377C295.085 255.015 280.153 250.089 268.14 241.89C246.296 227.497 232.1 202.89 232.1 174.829C232.1 146.95 246.296 122.161 268.14 107.768C280.696 99.3886 295.99 94.4626 312.381 94.4626C328.58 94.4626 343.874 99.3886 356.622 107.768V94.4513H392.662V174.818C392.662 202.879 378.285 227.486 356.622 241.879C353.896 243.702 351.158 245.344 348.251 246.805L353.715 255.366L368.828 278.15L392.674 314.228H349.53H222.993L188.548 278.15H325.854L310.741 255.377ZM312.381 130.541C287.8 130.541 268.14 150.403 268.14 174.829C268.14 188.679 274.146 200.886 284.157 208.903C291.804 215.279 301.454 219.287 312.37 219.287C317.833 219.287 323.297 218.189 328.206 216.366C344.767 209.99 356.611 193.774 356.611 174.818C356.622 150.403 336.781 130.541 312.381 130.541Z" fill="#1C1C1C"/>
<path d="M521.779 174.818C521.779 150.404 506.305 130.53 487.006 130.53C467.708 130.53 452.052 150.392 452.052 174.818V244.801V255.366H416.012V174.818V35.4082H452.052V104.836C462.244 98.2793 474.258 94.4517 487.006 94.4517C526.146 94.4517 557.819 130.53 557.819 174.818V255.366H521.779V244.801V174.818Z" fill="#1C1C1C"/>
<path d="M585.917 35.4082H621.957V255.378H585.917V35.4082Z" fill="#1C1C1C"/>
<path d="M645.305 174.818C645.305 146.938 659.682 122.15 681.345 107.757C694.093 99.3773 709.376 94.4513 725.767 94.4513C742.147 94.4513 757.26 99.3773 770.008 107.757V94.4513H806.048V174.818V255.366H770.008V241.879C757.26 250.451 742.158 255.366 725.767 255.366C709.387 255.366 694.093 250.451 681.345 241.879C659.694 227.486 645.305 202.89 645.305 174.818ZM770.008 174.818C770.008 150.403 750.167 130.53 725.767 130.53C701.186 130.53 681.345 150.392 681.345 174.818C681.345 199.414 701.186 219.288 725.767 219.288C750.167 219.288 770.008 199.425 770.008 174.818Z" fill="#1C1C1C"/>
<path d="M943.92 167.355C943.92 147.131 927.167 130.541 906.964 130.541C886.942 130.541 870.188 147.131 870.188 167.355V219.288V255.366H834.148V167.344V94.4513H870.188V104.654C881.116 98.0976 893.491 94.4513 906.964 94.4513C920.436 94.4513 932.993 98.0976 943.92 104.654C965.402 117.224 979.96 140.733 979.96 167.344V255.366H943.92V219.288V167.355Z" fill="#1C1C1C"/>
<path d="M1128.02 241.891C1115.27 250.463 1099.99 255.378 1083.6 255.378C1039.36 255.378 1003.32 219.299 1003.32 174.83C1003.32 130.541 1039.36 94.4631 1083.6 94.4631C1099.98 94.4631 1115.27 99.389 1128.02 107.769V35.4082H1164.06V174.818V255.366H1128.02V241.891ZM1083.6 219.288C1108.18 219.288 1128.02 199.426 1128.02 174.818C1128.02 150.404 1108.18 130.53 1083.6 130.53C1059.02 130.53 1039.36 150.392 1039.36 174.818C1039.36 199.426 1059.02 219.288 1083.6 219.288Z" fill="#1C1C1C"/>
<path d="M1219.82 241.89C1201.26 229.683 1188.14 210.002 1184.5 186.856C1184.14 183.028 1183.78 178.838 1183.78 174.829C1183.78 166.631 1185.06 158.432 1187.24 150.958C1193.07 133.1 1204.54 117.971 1219.83 107.769C1232.39 99.3887 1247.68 94.4628 1264.07 94.4628C1292.1 94.4628 1316.68 108.856 1331.24 130.541C1335.25 136.735 1338.53 143.666 1340.71 150.947C1343.07 158.421 1344.35 166.62 1344.35 174.818C1344.35 178.827 1343.99 183.017 1343.45 186.844H1306.67H1282.83H1246.79H1221.48C1226.58 205.608 1243.87 219.276 1264.08 219.276C1279.56 219.276 1293.21 211.259 1301.22 199.052L1331.25 219.276C1316.69 240.781 1292.11 255.355 1264.08 255.355C1247.67 255.377 1232.37 250.451 1219.82 241.89ZM1300.82 150.947H1301.37C1301.37 150.766 1301.19 150.766 1301.19 150.585C1293.18 138.559 1279.52 130.541 1264.05 130.541C1248.39 130.541 1234.74 138.559 1226.73 150.947H1300.82Z" fill="#1C1C1C"/>
<path d="M1447.97 130.541C1423.58 130.541 1403.73 150.403 1403.73 174.829V241.89V255.377H1367.69V174.829V94.4513H1403.73V107.757C1416.29 99.3773 1431.58 94.4513 1447.97 94.4513V130.541Z" fill="#1C1C1C"/>
<path d="M172.71 94.4519H208.751V255.367H172.71V94.4519Z" fill="#1C1C1C"/>
<path d="M208.751 35.4082H172.71V68.7575H208.751V35.4082Z" fill="#1C1C1C"/>
<path d="M1538.83 116.908H1512.38V97.0455C1520.54 96.1622 1526.99 92.6857 1531.73 86.616C1536.47 80.5464 1538.84 73.1065 1538.84 64.2737V45.0795H1559.01V97.0455H1589.76V116.908H1559.01V245.334H1603.98V262.546H1538.84V116.908H1538.83Z" fill="#753BBD"/>
<path d="M1630.08 187.411C1630.08 198.452 1632.56 208.429 1637.53 217.363C1642.48 226.298 1649.1 233.307 1657.37 238.381C1665.64 243.465 1674.72 245.99 1684.65 245.99C1695.9 245.99 1705.7 243.726 1714.08 239.207C1722.45 234.689 1728.84 228.234 1733.25 219.843L1752.42 226.796C1746.25 239.377 1737.32 249.139 1725.65 256.091C1713.96 263.044 1700.3 266.521 1684.65 266.521C1669.66 266.521 1656.43 262.886 1644.97 255.605C1633.5 248.323 1624.63 238.064 1618.35 224.826C1612.06 211.588 1608.93 196.255 1608.93 178.816C1608.93 161.83 1612.06 146.871 1618.35 133.962C1624.63 121.052 1633.5 111.019 1644.97 103.84C1656.43 96.6716 1669.65 93.0819 1684.65 93.0819C1699.42 93.0819 1712.48 96.8302 1723.83 104.338C1735.17 111.846 1744.05 122.207 1750.44 135.456C1756.83 148.694 1760.15 163.71 1760.36 180.47V187.422H1630.08V187.411ZM1684.65 113.601C1669.22 113.601 1656.83 118.459 1647.46 128.164C1638.09 137.88 1632.52 151.559 1630.76 169.202H1739.21C1737.66 151.774 1732.1 138.152 1722.51 128.322C1712.91 118.504 1700.3 113.601 1684.65 113.601Z" fill="#753BBD"/>
<path d="M1923.7 224.814C1917.52 237.837 1908.54 248.04 1896.75 255.435C1884.96 262.829 1871.57 266.521 1856.59 266.521C1841.38 266.521 1828.03 262.886 1816.58 255.605C1805.12 248.323 1796.18 238.12 1789.79 224.984C1783.4 211.86 1780.21 196.686 1780.21 179.473C1780.21 162.487 1783.4 147.426 1789.79 134.29C1796.18 121.166 1805.12 111.008 1816.58 103.84C1828.03 96.6716 1841.37 93.0819 1856.59 93.0819C1871.8 93.0819 1885.24 96.6716 1896.92 103.84C1908.6 111.008 1917.53 121.109 1923.7 134.12L1903.2 141.73C1898.35 132.909 1891.96 126.171 1884.03 121.539C1876.1 116.908 1866.95 114.586 1856.59 114.586C1839.83 114.586 1826.55 120.429 1816.75 132.127C1806.94 143.825 1802.03 159.599 1802.03 179.462C1802.03 199.539 1806.93 215.438 1816.75 227.125C1826.55 238.822 1839.83 244.666 1856.59 244.666C1866.95 244.666 1876.1 242.344 1884.03 237.713C1891.97 233.081 1898.35 226.355 1903.2 217.522L1923.7 224.814Z" fill="#753BBD"/>
<path d="M1972.29 118.89C1974.27 112.491 1980.11 106.762 1989.82 101.677C1999.51 96.6039 2009.87 94.0673 2020.9 94.0673C2033.02 94.0673 2043.66 96.6039 2052.81 101.677C2061.95 106.762 2069.01 113.986 2073.98 123.363C2078.93 132.739 2081.42 143.61 2081.42 155.964V262.546H2059.6V166.564C2059.6 149.351 2055.74 136.442 2048.03 127.836C2040.3 119.229 2029.4 114.926 2015.29 114.926C2007.13 114.926 1999.63 117.304 1992.8 122.049C1985.97 126.794 1980.51 133.362 1976.43 141.741C1972.35 150.133 1970.33 159.724 1970.33 170.538V262.558H1948.5V27.5386H1970.33V118.89H1972.29Z" fill="#753BBD"/>
</g>
<defs>
<clipPath id="clip0_532_1998">
<rect width="2082" height="314" fill="white" transform="translate(0 0.700073)"/>
</clipPath>
</defs>
</svg>
